<svg width="128" height="128" viewBox="0 0 128 128" fill="none" xmlns="http://www.w3.org/2000/svg">
  <style>
		path { fill: #40404C; }

		@media (prefers-color-scheme: dark) {
      path { fill: #fff }
    }
  </style>
	<path fill-rule="evenodd" clip-rule="evenodd" d="M45.9643 123.015L57.2356 128L60.9657 75.3188L45.844 68.6306L9 106.666L19.9213 111.496L27.9216 103.004L46.9637 111.426L45.9643 123.015ZM35.0491 95.5234L49.6067 80.0745L47.8605 101.19L35.0491 95.5234Z" fill="#40404C"/>
	<path fill-rule="evenodd" clip-rule="evenodd" d="M67.1364 0L58.7289 2.39489L55.2877 30.0773L55.144 30.1183L37.4587 8.45376L29.0512 10.8486L29.9604 62.2238L41.6015 58.9078L40.4994 29.4952L40.6431 29.4543L55.8742 47.4659L63.8505 45.1938L67.2309 21.8807L67.3746 21.8398L82.1299 47.3632L93.6992 44.0676L67.1364 0Z" fill="#40404C"/>
	<path fill-rule="evenodd" clip-rule="evenodd" d="M71.6752 110.58L98.9857 112.478L107.309 105.024C112.965 99.9436 118.302 95.1967 118.949 86.0015C119.816 73.6939 109.5 63.4528 95.3688 62.4712L75.1605 61.0674L71.6752 110.58ZM82.4443 101.377L84.5355 71.6697L92.6184 72.2311C101.413 72.9856 106.759 79.4567 106.166 87.8835C105.558 96.5244 99.3319 102.551 91.1768 101.984L82.4443 101.377Z" fill="#40404C"/>
</svg>
